<svg width="512" height="512" viewBox="0 0 157 157" fill="none" xmlns="http://www.w3.org/2000/svg">
  <rect width="157" height="157" fill="#ffffff"/>
  <path d="M95.1305 48L97 57.2877C95.5979 56.5531 94.1179 55.9759 92.56 55.5561C91.054 55.0839 89.3144 54.769 87.341 54.6116C85.3677 54.4017 82.953 54.2968 80.0968 54.2968H69.1916V75.4697H75.8126C78.7207 75.4697 81.6288 75.4172 84.5368 75.3123C87.4449 75.1548 90.301 74.7351 93.1053 74.0529V83.1832C90.301 82.5011 87.4449 82.1075 84.5368 82.0026C81.6288 81.8452 78.7207 81.7665 75.8126 81.7665H69.1916V91.5265C69.1916 94.4649 69.2435 97.4034 69.3474 100.342C69.5032 103.28 69.9186 106.166 70.5937 109H60C60.6751 106.166 61.0646 103.28 61.1684 100.342C61.3242 97.4034 61.4021 94.4649 61.4021 91.5265V65.4735C61.4021 62.5351 61.3242 59.5966 61.1684 56.6581C61.0646 53.7196 60.6751 50.8335 60 48H95.1305Z" fill="#040404"/>
</svg>
